<svg viewBox="0 0 16 16" xmlns="http://www.w3.org/2000/svg">
	<style>*{color-scheme:light dark;fill:light-dark(#000,#fff)}</style>
	<path d="M 6.5 9.5 A 1 1 0 0 0 8 8 A 1.41 1.41 0 0 1 8 6 L 10.5 3.5 A 1 1 0 1 1 13 6 L 12.5 6.5 A 1 1 0 0 0 14 8 L 14.5 7.5 A 1 1 0 0 0 9 2 L 6.5 4.5 A 3.53 3.53 0 0 0 6.5 9.5 Z M 10.5 6.5 A 1 1 180 0 0 9 8 A 1.41 1.41 180 0 1 9 10 L 6.5 12.5 A 1 1 180 1 1 4 10 L 4.5 9.5 A 1 1 180 0 0 3 8 L 2.5 8.5 A 1 1 180 0 0 8 14 L 10.5 11.5 A 3.53 3.53 180 0 0 10.5 6.5 Z"  />
</svg>