<svg xmlns="http://www.w3.org/2000/svg" viewBox="-10 -10 20 20">
	<style>*{color-scheme:light dark;fill:light-dark(#000,#fff)}</style>
	<path d="M -9.25 -8.25 v 4.5 a 1 1 0 0 0 1 1 h 16.5 a 1 1 0 0 0 1 -1 v -4.5 a 1 1 0 0 0 -1 -1 h -16.5 a 1 1 0 0 0 -1 1 m 0.5 0 a 0.5 0.5 0 0 1 0.5 -0.5 h 16.5 a 0.5 0.5 0 0 1 0.5 0.5 v 4.5 a 0.5 0.5 0 0 1 -0.5 0.5 h -16.5 a 0.5 0.5 0 0 1 -0.5 -0.5 v -4.5 m 1.25 2.25 a 1.25 1.25 0 0 0 2.5 0 a 1.25 1.25 0 0 0 -2.5 0 m 0.5 0 a 0.75 0.75 0 0 1 1.5 0 a 0.75 0.75 0 0 1 -1.5 0 m 9 -0.5 a 0.25 0.25 0 0 0 0.5 0 a 0.25 0.25 0 0 0 -0.5 0 m 1 0 a 0.25 0.25 0 0 0 0.5 0 a 0.25 0.25 0 0 0 -0.5 0 m 1 0 a 0.25 0.25 0 0 0 0.5 0 a 0.25 0.25 0 0 0 -0.5 0 m 1 0 a 0.25 0.25 0 0 0 0.5 0 a 0.25 0.25 0 0 0 -0.5 0 m 1 0 a 0.25 0.25 0 0 0 0.5 0 a 0.25 0.25 0 0 0 -0.5 0 m -3.5 1 a 0.25 0.25 0 0 0 0.5 0 a 0.25 0.25 0 0 0 -0.5 0 m 1 0 a 0.25 0.25 0 0 0 0.5 0 a 0.25 0.25 0 0 0 -0.5 0 m 1 0 a 0.25 0.25 0 0 0 0.5 0 a 0.25 0.25 0 0 0 -0.5 0 m 1 0 a 0.25 0.25 0 0 0 0.5 0 a 0.25 0.25 0 0 0 -0.5 0 m 1 0 a 0.25 0.25 0 0 0 0.5 0 a 0.25 0.25 0 0 0 -0.5 0 M -9.25 -2.25 v 4.5 a 1 1 0 0 0 1 1 h 16.5 a 1 1 0 0 0 1 -1 v -4.5 a 1 1 0 0 0 -1 -1 h -16.5 a 1 1 0 0 0 -1 1 m 0.5 0 a 0.5 0.5 0 0 1 0.5 -0.5 h 16.5 a 0.5 0.5 0 0 1 0.5 0.5 v 4.5 a 0.5 0.5 0 0 1 -0.5 0.5 h -16.5 a 0.5 0.5 0 0 1 -0.5 -0.5 v -4.5 m 1.25 2.25 a 1.25 1.25 0 0 0 2.5 0 a 1.25 1.25 0 0 0 -2.5 0 m 0.5 0 a 0.75 0.75 0 0 1 1.5 0 a 0.75 0.75 0 0 1 -1.5 0 m 9 -0.5 a 0.25 0.25 0 0 0 0.5 0 a 0.25 0.25 0 0 0 -0.5 0 m 1 0 a 0.25 0.25 0 0 0 0.5 0 a 0.25 0.25 0 0 0 -0.5 0 m 1 0 a 0.25 0.25 0 0 0 0.5 0 a 0.25 0.25 0 0 0 -0.5 0 m 1 0 a 0.25 0.25 0 0 0 0.5 0 a 0.25 0.25 0 0 0 -0.5 0 m 1 0 a 0.25 0.25 0 0 0 0.5 0 a 0.25 0.25 0 0 0 -0.5 0 m -3.5 1 a 0.25 0.25 0 0 0 0.5 0 a 0.25 0.25 0 0 0 -0.5 0 m 1 0 a 0.25 0.25 0 0 0 0.5 0 a 0.25 0.25 0 0 0 -0.5 0 m 1 0 a 0.25 0.25 0 0 0 0.5 0 a 0.25 0.25 0 0 0 -0.5 0 m 1 0 a 0.25 0.25 0 0 0 0.5 0 a 0.25 0.25 0 0 0 -0.5 0 m 1 0 a 0.25 0.25 0 0 0 0.5 0 a 0.25 0.25 0 0 0 -0.5 0 M -9.25 3.75 v 4.5 a 1 1 0 0 0 1 1 h 16.5 a 1 1 0 0 0 1 -1 v -4.5 a 1 1 0 0 0 -1 -1 h -16.5 a 1 1 0 0 0 -1 1 m 0.5 0 a 0.5 0.5 0 0 1 0.5 -0.5 h 16.5 a 0.5 0.5 0 0 1 0.5 0.5 v 4.5 a 0.5 0.5 0 0 1 -0.5 0.5 h -16.5 a 0.5 0.5 0 0 1 -0.5 -0.5 v -4.5 m 1.25 2.25 a 1.25 1.25 0 0 0 2.5 0 a 1.25 1.25 0 0 0 -2.5 0 m 0.5 0 a 0.75 0.75 0 0 1 1.5 0 a 0.75 0.75 0 0 1 -1.5 0 m 9 -0.5 a 0.25 0.25 0 0 0 0.5 0 a 0.25 0.25 0 0 0 -0.5 0 m 1 0 a 0.25 0.25 0 0 0 0.5 0 a 0.25 0.25 0 0 0 -0.5 0 m 1 0 a 0.25 0.25 0 0 0 0.5 0 a 0.25 0.25 0 0 0 -0.5 0 m 1 0 a 0.25 0.25 0 0 0 0.5 0 a 0.25 0.25 0 0 0 -0.5 0 m 1 0 a 0.25 0.25 0 0 0 0.5 0 a 0.25 0.25 0 0 0 -0.5 0 m -3.5 1 a 0.25 0.25 0 0 0 0.5 0 a 0.25 0.25 0 0 0 -0.5 0 m 1 0 a 0.25 0.25 0 0 0 0.5 0 a 0.25 0.25 0 0 0 -0.5 0 m 1 0 a 0.25 0.25 0 0 0 0.5 0 a 0.25 0.25 0 0 0 -0.5 0 m 1 0 a 0.25 0.25 0 0 0 0.5 0 a 0.25 0.25 0 0 0 -0.5 0 m 1 0 a 0.25 0.25 0 0 0 0.5 0 a 0.25 0.25 0 0 0 -0.5 0" fill="0"/>
</svg>