<svg xmlns="http://www.w3.org/2000/svg" viewBox="0 0 500 500">
	<style>*{color-scheme:light dark;fill:light-dark(#000,#fff)}</style>
	<path d="M360 100 304 161 360 187 416 161 360 100ZM278 161 281 220 346 192 278 161ZM442 161 374 192 439 220 442 161ZM360 198 293 228 360 261 427 228 360 198ZM253 225 257 305 347 267 253 225ZM468 225 373 267 463 305 468 225ZM360 275 267 315 360 357 453 315 360 275ZM490 310 374 363 464 403 490 310ZM230 310 256 403 346 363 230 310ZM360 370 267 411 360 455 453 411 360 370ZM346 460 347 484 373 484 374 460 360 466 346 460ZM47 50H403C415 50 425 60 425 72V149H414V72C414 66 409 61 403 61H47C41 61 36 66 36 72V169C36 175 41 180 47 180H273V191H47C41 191 36 195 36 201V299C36 305 41 310 47 310H223V320H47C41 320 36 325 36 331V428C36 434 41 439 47 439H311V451H47C35 450 25 440 25 428V331C25 325 28 319 32 315 28 311 25 305 25 299V201C25 195 28 189 32 185 28 181 25 175 25 169V72C25 60 35 50 47 50ZM76 97C94 87 117 100 117 120 117 130 112 139 103 144 85 154 63 141 63 120 63 111 68 102 76 97ZM82 134C93 141 106 133 106 120 106 115 103 109 98 106 87 100 74 108 74 120 74 126 77 131 82 134ZM271 105C275 103 279 105 279 110 279 111 278 113 276 114 273 116 268 114 268 110 268 108 269 106 271 105ZM293 105C296 103 301 105 301 110 301 111 300 113 298 114 294 116 290 114 290 110 290 108 291 106 293 105ZM314 105C318 103 322 105 322 110 322 111 321 113 320 114 316 116 312 114 312 110 312 108 313 106 314 105ZM282 126C285 124 290 127 290 131 290 133 289 135 287 136 284 138 279 135 279 131 279 129 280 127 282 126ZM303 126C307 124 312 127 312 131 312 133 311 135 309 136 305 138 301 135 301 131 301 129 302 127 303 126ZM76 227C94 216 117 229 117 250 117 260 112 269 103 273 85 284 63 271 63 250 63 240 68 231 76 227ZM82 264C93 270 106 263 106 250 106 244 103 239 98 236 87 230 74 238 74 250 74 256 77 261 82 264ZM76 356C94 346 117 359 117 380 117 389 112 398 103 403 85 414 63 401 63 380 63 370 68 361 76 356ZM82 394C93 400 106 392 106 380 106 374 103 369 98 366 87 359 74 367 74 380 74 386 77 391 82 394Z" fill="0" />
</svg>