<svg xmlns="http://www.w3.org/2000/svg" viewBox="0 0 500 500">
	<style>*{color-scheme:light dark;fill:light-dark(#000,#fff)}</style>
	<path d="M228.05 14.596v308.077l43.84-308.077zm-32.698 351.129c-76.366 0-138.27-51.785-138.27-115.661 0-63.884 61.904-115.669 138.27-115.669-76.366 49.393-90.406 141.216-31.358 205.1 9.078 9.82 19.618 18.636 31.358 26.23zm76.598 119.679V177.327l-43.84 308.077Zm32.698-351.129c76.366 0 138.27 51.785 138.27 115.669 0 63.876-61.904 115.661-138.27 115.661 76.366-49.393 90.406-141.216 31.358-205.1-9.078-9.82-19.618-18.636-31.358-26.23z"/>
</svg>